<svg width="38" height="38" viewBox="0 0 38 38" fill="none" xmlns="http://www.w3.org/2000/svg">
<rect width="38" height="38" rx="5" fill="#EAF4FF"/>
<g clip-path="url(#clip0_340_2498)">
<path d="M30.3479 18.7985C30.2175 18.6604 30.0362 18.5703 29.8241 18.5642L10.0333 17.996C9.62332 17.9842 9.27431 18.3137 9.26254 18.7237C9.25077 19.1336 9.5803 19.4826 9.99026 19.4944L29.7811 20.0627C30.1911 20.0744 30.5401 19.7449 30.5518 19.3349C30.5579 19.1229 30.4784 18.9367 30.3479 18.7985Z" fill="#2689EC"/>
<path d="M18.028 11.1798C17.7466 10.8817 17.2659 10.8679 16.9678 11.1494L9.50041 18.2C9.20229 18.4814 9.1885 18.9621 9.46997 19.2602L16.5206 26.7276C16.802 27.0257 17.2827 27.0395 17.5808 26.758C17.8789 26.4765 17.8927 25.9959 17.6112 25.6978L11.0755 18.7757L17.9976 12.24C18.2957 11.9585 18.3095 11.4779 18.028 11.1798Z" fill="#2689EC"/>
</g>
<defs>
<clipPath id="clip0_340_2498">
<rect width="24" height="24" fill="white" transform="matrix(0.686523 0.727108 0.727108 -0.686523 4.03711 17.5127)"/>
</clipPath>
</defs>
</svg>
