<svg width="20" height="20" viewBox="0 0 20 20" fill="none" xmlns="http://www.w3.org/2000/svg">
<path d="M2.9165 15.6253C2.57484 15.6253 2.2915 15.342 2.2915 15.0003V5.83366C2.2915 2.15866 3.40817 1.04199 7.08317 1.04199H12.9165C16.5915 1.04199 17.7082 2.15866 17.7082 5.83366V14.167C17.7082 14.3003 17.7082 14.4253 17.6998 14.5587C17.6748 14.9003 17.3665 15.167 17.0332 15.142C16.6915 15.117 16.4248 14.817 16.4498 14.4753C16.4582 14.3753 16.4582 14.267 16.4582 14.167V5.83366C16.4582 2.85866 15.8998 2.29199 12.9165 2.29199H7.08317C4.09984 2.29199 3.5415 2.85866 3.5415 5.83366V15.0003C3.5415 15.342 3.25817 15.6253 2.9165 15.6253Z" fill="black"/>
<path d="M14.1665 18.9583H5.83317C3.88317 18.9583 2.2915 17.3667 2.2915 15.4167V14.875C2.2915 13.2167 3.6415 11.875 5.2915 11.875H17.0832C17.4248 11.875 17.7082 12.1583 17.7082 12.5V15.4167C17.7082 17.3667 16.1165 18.9583 14.1665 18.9583ZM5.2915 13.125C4.32484 13.125 3.5415 13.9083 3.5415 14.875V15.4167C3.5415 16.6833 4.5665 17.7083 5.83317 17.7083H14.1665C15.4332 17.7083 16.4582 16.6833 16.4582 15.4167V13.125H5.2915Z" fill="black"/>
<path d="M13.3332 6.45801H6.6665C6.32484 6.45801 6.0415 6.17467 6.0415 5.83301C6.0415 5.49134 6.32484 5.20801 6.6665 5.20801H13.3332C13.6748 5.20801 13.9582 5.49134 13.9582 5.83301C13.9582 6.17467 13.6748 6.45801 13.3332 6.45801Z" fill="black"/>
<path d="M10.8332 9.375H6.6665C6.32484 9.375 6.0415 9.09167 6.0415 8.75C6.0415 8.40833 6.32484 8.125 6.6665 8.125H10.8332C11.1748 8.125 11.4582 8.40833 11.4582 8.75C11.4582 9.09167 11.1748 9.375 10.8332 9.375Z" fill="black"/>
</svg>
