<svg width="20" height="20" viewBox="0 0 20 20" fill="none" xmlns="http://www.w3.org/2000/svg">
<path d="M6.6665 4.79199C6.32484 4.79199 6.0415 4.50866 6.0415 4.16699V1.66699C6.0415 1.32533 6.32484 1.04199 6.6665 1.04199C7.00817 1.04199 7.2915 1.32533 7.2915 1.66699V4.16699C7.2915 4.50866 7.00817 4.79199 6.6665 4.79199Z" fill="black"/>
<path d="M13.3335 4.79199C12.9918 4.79199 12.7085 4.50866 12.7085 4.16699V1.66699C12.7085 1.32533 12.9918 1.04199 13.3335 1.04199C13.6752 1.04199 13.9585 1.32533 13.9585 1.66699V4.16699C13.9585 4.50866 13.6752 4.79199 13.3335 4.79199Z" fill="black"/>
<path d="M7.08333 12.0849C6.975 12.0849 6.86667 12.0599 6.76667 12.0182C6.65833 11.9766 6.575 11.9182 6.49167 11.8432C6.34167 11.6849 6.25 11.4766 6.25 11.2516C6.25 11.1432 6.275 11.0349 6.31667 10.9349C6.35833 10.8349 6.41667 10.7432 6.49167 10.6599C6.575 10.5849 6.65833 10.5266 6.76667 10.4849C7.06667 10.3599 7.44167 10.4266 7.675 10.6599C7.825 10.8182 7.91667 11.0349 7.91667 11.2516C7.91667 11.3016 7.90833 11.3599 7.9 11.4182C7.89167 11.4682 7.875 11.5182 7.85 11.5682C7.83333 11.6182 7.80833 11.6682 7.775 11.7182C7.75 11.7599 7.70833 11.8016 7.675 11.8432C7.51667 11.9932 7.3 12.0849 7.08333 12.0849Z" fill="black"/>
<path d="M9.99984 12.0827C9.8915 12.0827 9.78317 12.0577 9.68317 12.0161C9.57484 11.9744 9.4915 11.9161 9.40817 11.8411C9.25817 11.6827 9.1665 11.4744 9.1665 11.2494C9.1665 11.1411 9.1915 11.0327 9.23317 10.9327C9.27484 10.8327 9.33317 10.7411 9.40817 10.6577C9.4915 10.5827 9.57484 10.5244 9.68317 10.4827C9.98317 10.3494 10.3582 10.4244 10.5915 10.6577C10.7415 10.8161 10.8332 11.0327 10.8332 11.2494C10.8332 11.2994 10.8248 11.3577 10.8165 11.4161C10.8082 11.4661 10.7915 11.5161 10.7665 11.5661C10.7498 11.6161 10.7248 11.6661 10.6915 11.7161C10.6665 11.7577 10.6248 11.7994 10.5915 11.8411C10.4332 11.9911 10.2165 12.0827 9.99984 12.0827Z" fill="black"/>
<path d="M12.9168 12.0827C12.8085 12.0827 12.7002 12.0577 12.6002 12.0161C12.4918 11.9744 12.4085 11.9161 12.3252 11.8411C12.2918 11.7994 12.2585 11.7577 12.2252 11.7161C12.1918 11.6661 12.1668 11.6161 12.1502 11.5661C12.1252 11.5161 12.1085 11.4661 12.1002 11.4161C12.0918 11.3577 12.0835 11.2994 12.0835 11.2494C12.0835 11.0327 12.1752 10.8161 12.3252 10.6577C12.4085 10.5827 12.4918 10.5244 12.6002 10.4827C12.9085 10.3494 13.2752 10.4244 13.5085 10.6577C13.6585 10.8161 13.7502 11.0327 13.7502 11.2494C13.7502 11.2994 13.7418 11.3577 13.7335 11.4161C13.7252 11.4661 13.7085 11.5161 13.6835 11.5661C13.6668 11.6161 13.6418 11.6661 13.6085 11.7161C13.5835 11.7577 13.5418 11.7994 13.5085 11.8411C13.3502 11.9911 13.1335 12.0827 12.9168 12.0827Z" fill="black"/>
<path d="M7.08333 15.0028C6.975 15.0028 6.86667 14.9779 6.76667 14.9363C6.66667 14.8946 6.575 14.8362 6.49167 14.7612C6.34167 14.6028 6.25 14.3862 6.25 14.1695C6.25 14.0612 6.275 13.9528 6.31667 13.8528C6.35833 13.7445 6.41667 13.6529 6.49167 13.5779C6.8 13.2696 7.36667 13.2696 7.675 13.5779C7.825 13.7363 7.91667 13.9528 7.91667 14.1695C7.91667 14.3862 7.825 14.6028 7.675 14.7612C7.51667 14.9112 7.3 15.0028 7.08333 15.0028Z" fill="black"/>
<path d="M9.99984 15.0028C9.78317 15.0028 9.5665 14.9112 9.40817 14.7612C9.25817 14.6028 9.1665 14.3862 9.1665 14.1695C9.1665 14.0612 9.1915 13.9528 9.23317 13.8528C9.27484 13.7445 9.33317 13.6529 9.40817 13.5779C9.7165 13.2696 10.2832 13.2696 10.5915 13.5779C10.6665 13.6529 10.7248 13.7445 10.7665 13.8528C10.8082 13.9528 10.8332 14.0612 10.8332 14.1695C10.8332 14.3862 10.7415 14.6028 10.5915 14.7612C10.4332 14.9112 10.2165 15.0028 9.99984 15.0028Z" fill="black"/>
<path d="M12.9168 15.0004C12.7002 15.0004 12.4835 14.9087 12.3252 14.7587C12.2502 14.6837 12.1918 14.5921 12.1502 14.4837C12.1085 14.3837 12.0835 14.2754 12.0835 14.1671C12.0835 14.0587 12.1085 13.9504 12.1502 13.8504C12.1918 13.7421 12.2502 13.6504 12.3252 13.5754C12.5168 13.3837 12.8085 13.2921 13.0752 13.3504C13.1335 13.3587 13.1835 13.3754 13.2335 13.4004C13.2835 13.4171 13.3335 13.4421 13.3835 13.4754C13.4252 13.5004 13.4668 13.5421 13.5085 13.5754C13.6585 13.7337 13.7502 13.9504 13.7502 14.1671C13.7502 14.3837 13.6585 14.6004 13.5085 14.7587C13.3502 14.9087 13.1335 15.0004 12.9168 15.0004Z" fill="black"/>
<path d="M17.0832 8.19629H2.9165C2.57484 8.19629 2.2915 7.91296 2.2915 7.57129C2.2915 7.22962 2.57484 6.94629 2.9165 6.94629H17.0832C17.4248 6.94629 17.7082 7.22962 17.7082 7.57129C17.7082 7.91296 17.4248 8.19629 17.0832 8.19629Z" fill="black"/>
<path d="M13.3333 18.9587H6.66667C3.625 18.9587 1.875 17.2087 1.875 14.167V7.08366C1.875 4.04199 3.625 2.29199 6.66667 2.29199H13.3333C16.375 2.29199 18.125 4.04199 18.125 7.08366V14.167C18.125 17.2087 16.375 18.9587 13.3333 18.9587ZM6.66667 3.54199C4.28333 3.54199 3.125 4.70033 3.125 7.08366V14.167C3.125 16.5503 4.28333 17.7087 6.66667 17.7087H13.3333C15.7167 17.7087 16.875 16.5503 16.875 14.167V7.08366C16.875 4.70033 15.7167 3.54199 13.3333 3.54199H6.66667Z" fill="black"/>
</svg>
