<svg width="20" height="20" viewBox="0 0 20 20" fill="none" xmlns="http://www.w3.org/2000/svg">
<path d="M10.8332 18.9587H7.49984C2.97484 18.9587 1.0415 17.0253 1.0415 12.5003V7.50032C1.0415 2.97533 2.97484 1.04199 7.49984 1.04199H12.4998C17.0248 1.04199 18.9582 2.97533 18.9582 7.50032V10.8337C18.9582 11.1753 18.6748 11.4587 18.3332 11.4587C17.9915 11.4587 17.7082 11.1753 17.7082 10.8337V7.50032C17.7082 3.65866 16.3415 2.29199 12.4998 2.29199H7.49984C3.65817 2.29199 2.2915 3.65866 2.2915 7.50032V12.5003C2.2915 16.342 3.65817 17.7087 7.49984 17.7087H10.8332C11.1748 17.7087 11.4582 17.992 11.4582 18.3337C11.4582 18.6753 11.1748 18.9587 10.8332 18.9587Z" fill="black"/>
<path d="M10.8332 18.9587H7.49984C2.97484 18.9587 1.0415 17.0253 1.0415 12.5003V7.50032C1.0415 2.97533 2.97484 1.04199 7.49984 1.04199H12.4998C17.0248 1.04199 18.9582 2.97533 18.9582 7.50032V10.8337C18.9582 11.1753 18.6748 11.4587 18.3332 11.4587C17.9915 11.4587 17.7082 11.1753 17.7082 10.8337V7.50032C17.7082 3.65866 16.3415 2.29199 12.4998 2.29199H7.49984C3.65817 2.29199 2.2915 3.65866 2.2915 7.50032V12.5003C2.2915 16.342 3.65817 17.7087 7.49984 17.7087H10.8332C11.1748 17.7087 11.4582 17.992 11.4582 18.3337C11.4582 18.6753 11.1748 18.9587 10.8332 18.9587Z" fill="black"/>
<path d="M5.8335 12.2385C5.49183 12.2385 5.2085 11.9552 5.2085 11.6135V8.93849C5.2085 8.59683 5.49183 8.31348 5.8335 8.31348C6.17516 8.31348 6.4585 8.59683 6.4585 8.93849V11.6135C6.4585 11.9635 6.17516 12.2385 5.8335 12.2385Z" fill="black"/>
<path d="M14.1665 12.2385C13.8248 12.2385 13.5415 11.9552 13.5415 11.6135V8.93849C13.5415 8.59683 13.8248 8.31348 14.1665 8.31348C14.5082 8.31348 14.7915 8.59683 14.7915 8.93849V11.6135C14.7915 11.9635 14.5082 12.2385 14.1665 12.2385Z" fill="black"/>
<path d="M10.8332 18.9587H7.49984C2.97484 18.9587 1.0415 17.0253 1.0415 12.5003V7.50032C1.0415 2.97533 2.97484 1.04199 7.49984 1.04199H12.4998C17.0248 1.04199 18.9582 2.97533 18.9582 7.50032V10.8337C18.9582 11.1753 18.6748 11.4587 18.3332 11.4587C17.9915 11.4587 17.7082 11.1753 17.7082 10.8337V7.50032C17.7082 3.65866 16.3415 2.29199 12.4998 2.29199H7.49984C3.65817 2.29199 2.2915 3.65866 2.2915 7.50032V12.5003C2.2915 16.342 3.65817 17.7087 7.49984 17.7087H10.8332C11.1748 17.7087 11.4582 17.992 11.4582 18.3337C11.4582 18.6753 11.1748 18.9587 10.8332 18.9587Z" fill="black"/>
<path d="M14.6512 18.128C14.4846 18.128 14.3262 18.0613 14.2096 17.9446L12.8929 16.6363C12.6512 16.3946 12.6429 15.9946 12.8929 15.753C13.1346 15.5113 13.5346 15.503 13.7762 15.753L14.6179 16.5863L17.0346 13.7613C17.2596 13.4946 17.6512 13.4696 17.9179 13.6946C18.1762 13.9196 18.2095 14.3113 17.9845 14.578L15.1346 17.9113C15.0179 18.0446 14.8596 18.1196 14.6846 18.128C14.6679 18.128 14.6596 18.128 14.6512 18.128Z" fill="black"/>
<path d="M10 11.875C9.65833 11.875 9.375 11.5917 9.375 11.25V8.75C9.375 8.40833 9.65833 8.125 10 8.125C10.3417 8.125 10.625 8.40833 10.625 8.75V11.25C10.625 11.5917 10.3417 11.875 10 11.875Z" fill="black"/>
</svg>
