<svg width="20" height="21" viewBox="0 0 20 21" fill="none" xmlns="http://www.w3.org/2000/svg">
<path d="M5.8335 12.8508C5.49183 12.8508 5.2085 12.5533 5.2085 12.1945V9.38576C5.2085 9.02701 5.49183 8.72949 5.8335 8.72949C6.17516 8.72949 6.4585 9.02701 6.4585 9.38576V12.1945C6.4585 12.562 6.17516 12.8508 5.8335 12.8508Z" fill="black"/>
<path d="M10 14.3763C9.65833 14.3763 9.375 14.0788 9.375 13.72V7.875C9.375 7.51625 9.65833 7.21875 10 7.21875C10.3417 7.21875 10.625 7.51625 10.625 7.875V13.72C10.625 14.0788 10.3417 14.3763 10 14.3763Z" fill="black"/>
<path d="M14.1665 12.8508C13.8248 12.8508 13.5415 12.5533 13.5415 12.1945V9.38576C13.5415 9.02701 13.8248 8.72949 14.1665 8.72949C14.5082 8.72949 14.7915 9.02701 14.7915 9.38576V12.1945C14.7915 12.562 14.5082 12.8508 14.1665 12.8508Z" fill="black"/>
<path d="M12.4998 19.9062H7.49984C2.97484 19.9062 1.0415 17.8762 1.0415 13.125V7.875C1.0415 3.12375 2.97484 1.09375 7.49984 1.09375H12.4998C17.0248 1.09375 18.9582 3.12375 18.9582 7.875V13.125C18.9582 17.8762 17.0248 19.9062 12.4998 19.9062ZM7.49984 2.40625C3.65817 2.40625 2.2915 3.84125 2.2915 7.875V13.125C2.2915 17.1587 3.65817 18.5937 7.49984 18.5937H12.4998C16.3415 18.5937 17.7082 17.1587 17.7082 13.125V7.875C17.7082 3.84125 16.3415 2.40625 12.4998 2.40625H7.49984Z" fill="black"/>
</svg>
