<svg width="20" height="20" viewBox="0 0 20 20" fill="none" xmlns="http://www.w3.org/2000/svg">
<path d="M9.00817 14.1252C8.84984 14.1252 8.6915 14.0669 8.5665 13.9419L7.3165 12.6919C7.07484 12.4502 7.07484 12.0502 7.3165 11.8085C7.55817 11.5669 7.95817 11.5669 8.19984 11.8085L9.00817 12.6169L11.8998 9.7252C12.1415 9.48353 12.5415 9.48353 12.7832 9.7252C13.0248 9.96686 13.0248 10.3669 12.7832 10.6085L9.44984 13.9419C9.33317 14.0669 9.1665 14.1252 9.00817 14.1252Z" fill="black"/>
<path d="M11.6665 5.62533H8.33317C7.53317 5.62533 6.0415 5.62533 6.0415 3.33366C6.0415 1.04199 7.53317 1.04199 8.33317 1.04199H11.6665C12.4665 1.04199 13.9582 1.04199 13.9582 3.33366C13.9582 4.13366 13.9582 5.62533 11.6665 5.62533ZM8.33317 2.29199C7.50817 2.29199 7.2915 2.29199 7.2915 3.33366C7.2915 4.37533 7.50817 4.37533 8.33317 4.37533H11.6665C12.7082 4.37533 12.7082 4.15866 12.7082 3.33366C12.7082 2.29199 12.4915 2.29199 11.6665 2.29199H8.33317Z" fill="black"/>
<path d="M12.5 18.9557H7.5C2.81667 18.9557 1.875 16.8057 1.875 13.3307V8.33075C1.875 4.53075 3.25 2.90575 6.63333 2.73075C6.975 2.71409 7.275 2.97242 7.29167 3.32242C7.30833 3.67242 7.04167 3.95575 6.7 3.97242C4.33333 4.10575 3.125 4.81409 3.125 8.33075V13.3307C3.125 16.4141 3.73333 17.7057 7.5 17.7057H12.5C16.2667 17.7057 16.875 16.4141 16.875 13.3307V8.33075C16.875 4.81409 15.6667 4.10575 13.3 3.97242C12.9583 3.95575 12.6917 3.65575 12.7083 3.31409C12.725 2.97242 13.0167 2.70575 13.3667 2.72242C16.75 2.90575 18.125 4.53075 18.125 8.32242V13.3224C18.125 16.8057 17.1833 18.9557 12.5 18.9557Z" fill="black"/>
</svg>
