<svg width="20" height="20" viewBox="0 0 20 20" fill="none" xmlns="http://www.w3.org/2000/svg">
<path d="M12.4998 10.7939H6.6665C6.32484 10.7939 6.0415 10.5106 6.0415 10.1689C6.0415 9.82728 6.32484 9.54395 6.6665 9.54395H12.4998C12.8415 9.54395 13.1248 9.82728 13.1248 10.1689C13.1248 10.5106 12.8415 10.7939 12.4998 10.7939Z" fill="black"/>
<path d="M10.3165 14.1279H6.6665C6.32484 14.1279 6.0415 13.8446 6.0415 13.5029C6.0415 13.1613 6.32484 12.8779 6.6665 12.8779H10.3165C10.6582 12.8779 10.9415 13.1613 10.9415 13.5029C10.9415 13.8446 10.6582 14.1279 10.3165 14.1279Z" fill="black"/>
<path d="M11.6665 5.62533H8.33317C7.53317 5.62533 6.0415 5.62533 6.0415 3.33366C6.0415 1.04199 7.53317 1.04199 8.33317 1.04199H11.6665C12.4665 1.04199 13.9582 1.04199 13.9582 3.33366C13.9582 4.13366 13.9582 5.62533 11.6665 5.62533ZM8.33317 2.29199C7.50817 2.29199 7.2915 2.29199 7.2915 3.33366C7.2915 4.37533 7.50817 4.37533 8.33317 4.37533H11.6665C12.7082 4.37533 12.7082 4.15866 12.7082 3.33366C12.7082 2.29199 12.4915 2.29199 11.6665 2.29199H8.33317Z" fill="black"/>
<path d="M12.5 18.9557H7.5C2.81667 18.9557 1.875 16.8057 1.875 13.3307V8.33075C1.875 4.53075 3.25 2.90575 6.63333 2.73075C6.96667 2.71409 7.275 2.97242 7.29167 3.32242C7.30833 3.67242 7.04167 3.95575 6.7 3.97242C4.33333 4.10575 3.125 4.81409 3.125 8.33075V13.3307C3.125 16.4141 3.73333 17.7057 7.5 17.7057H12.5C16.2667 17.7057 16.875 16.4141 16.875 13.3307V8.33075C16.875 4.81409 15.6667 4.10575 13.3 3.97242C12.9583 3.95575 12.6917 3.65575 12.7083 3.31409C12.725 2.97242 13.025 2.70575 13.3667 2.72242C16.75 2.90575 18.125 4.53075 18.125 8.32242V13.3224C18.125 16.8057 17.1833 18.9557 12.5 18.9557Z" fill="black"/>
</svg>
