<svg width="28" height="28" viewBox="0 0 28 28" fill="none" xmlns="http://www.w3.org/2000/svg">
<g clip-path="url(#clip0_293_632)">
<path d="M17.5 25.375H10.5C9.33968 25.375 8.22688 24.9141 7.40641 24.0936C6.58594 23.2731 6.125 22.1603 6.125 21V10.5C6.125 10.2679 6.21719 10.0454 6.38128 9.88128C6.54538 9.71719 6.76794 9.625 7 9.625C7.23206 9.625 7.45462 9.71719 7.61872 9.88128C7.78281 10.0454 7.875 10.2679 7.875 10.5V21C7.875 21.6962 8.15156 22.3639 8.64384 22.8562C9.13613 23.3484 9.80381 23.625 10.5 23.625H17.5C18.1962 23.625 18.8639 23.3484 19.3562 22.8562C19.8484 22.3639 20.125 21.6962 20.125 21V10.5C20.125 10.2679 20.2172 10.0454 20.3813 9.88128C20.5454 9.71719 20.7679 9.625 21 9.625C21.2321 9.625 21.4546 9.71719 21.6187 9.88128C21.7828 10.0454 21.875 10.2679 21.875 10.5V21C21.875 22.1603 21.4141 23.2731 20.5936 24.0936C19.7731 24.9141 18.6603 25.375 17.5 25.375Z" fill="black"/>
<path d="M22.75 7.875H5.25C5.01794 7.875 4.79538 7.78281 4.63128 7.61872C4.46719 7.45462 4.375 7.23206 4.375 7C4.375 6.76794 4.46719 6.54538 4.63128 6.38128C4.79538 6.21719 5.01794 6.125 5.25 6.125H22.75C22.9821 6.125 23.2046 6.21719 23.3687 6.38128C23.5328 6.54538 23.625 6.76794 23.625 7C23.625 7.23206 23.5328 7.45462 23.3687 7.61872C23.2046 7.78281 22.9821 7.875 22.75 7.875Z" fill="black"/>
<path d="M17.5 7.875H10.5C10.2679 7.875 10.0454 7.78281 9.88128 7.61872C9.71719 7.45462 9.625 7.23206 9.625 7V5.25C9.625 4.55381 9.90156 3.88613 10.3938 3.39384C10.8861 2.90156 11.5538 2.625 12.25 2.625H15.75C16.4462 2.625 17.1139 2.90156 17.6062 3.39384C18.0984 3.88613 18.375 4.55381 18.375 5.25V7C18.375 7.23206 18.2828 7.45462 18.1187 7.61872C17.9546 7.78281 17.7321 7.875 17.5 7.875ZM11.375 6.125H16.625V5.25C16.625 5.01794 16.5328 4.79538 16.3687 4.63128C16.2046 4.46719 15.9821 4.375 15.75 4.375H12.25C12.0179 4.375 11.7954 4.46719 11.6313 4.63128C11.4672 4.79538 11.375 5.01794 11.375 5.25V6.125Z" fill="black"/>
<path d="M12.25 20.125C12.0179 20.125 11.7954 20.0328 11.6313 19.8687C11.4672 19.7046 11.375 19.4821 11.375 19.25V13.125C11.375 12.8929 11.4672 12.6704 11.6313 12.5063C11.7954 12.3422 12.0179 12.25 12.25 12.25C12.4821 12.25 12.7046 12.3422 12.8687 12.5063C13.0328 12.6704 13.125 12.8929 13.125 13.125V19.25C13.125 19.4821 13.0328 19.7046 12.8687 19.8687C12.7046 20.0328 12.4821 20.125 12.25 20.125Z" fill="black"/>
<path d="M15.75 20.125C15.5179 20.125 15.2954 20.0328 15.1313 19.8687C14.9672 19.7046 14.875 19.4821 14.875 19.25V13.125C14.875 12.8929 14.9672 12.6704 15.1313 12.5063C15.2954 12.3422 15.5179 12.25 15.75 12.25C15.9821 12.25 16.2046 12.3422 16.3687 12.5063C16.5328 12.6704 16.625 12.8929 16.625 13.125V19.25C16.625 19.4821 16.5328 19.7046 16.3687 19.8687C16.2046 20.0328 15.9821 20.125 15.75 20.125Z" fill="black"/>
</g>
<defs>
<clipPath id="clip0_293_632">
<rect width="28" height="28" fill="white"/>
</clipPath>
</defs>
</svg>
