<svg width="111" height="111" viewBox="0 0 111 111" fill="none" xmlns="http://www.w3.org/2000/svg">
<rect opacity="0.1" width="111" height="111" rx="55.5" fill="#2689EC"/>
<path d="M60.625 73.75H49.625C47.8016 73.75 46.053 73.0257 44.7636 71.7364C43.4743 70.447 42.75 68.6984 42.75 66.875V50.375C42.75 50.0103 42.8949 49.6606 43.1527 49.4027C43.4106 49.1449 43.7603 49 44.125 49C44.4897 49 44.8394 49.1449 45.0973 49.4027C45.3551 49.6606 45.5 50.0103 45.5 50.375V66.875C45.5 67.969 45.9346 69.0182 46.7082 69.7918C47.4818 70.5654 48.531 71 49.625 71H60.625C61.719 71 62.7682 70.5654 63.5418 69.7918C64.3154 69.0182 64.75 67.969 64.75 66.875V50.375C64.75 50.0103 64.8949 49.6606 65.1527 49.4027C65.4106 49.1449 65.7603 49 66.125 49C66.4897 49 66.8394 49.1449 67.0973 49.4027C67.3551 49.6606 67.5 50.0103 67.5 50.375V66.875C67.5 68.6984 66.7757 70.447 65.4864 71.7364C64.197 73.0257 62.4484 73.75 60.625 73.75Z" fill="#2689EC"/>
<path d="M68.875 46.25H41.375C41.0103 46.25 40.6606 46.1051 40.4027 45.8473C40.1449 45.5894 40 45.2397 40 44.875C40 44.5103 40.1449 44.1606 40.4027 43.9027C40.6606 43.6449 41.0103 43.5 41.375 43.5H68.875C69.2397 43.5 69.5894 43.6449 69.8473 43.9027C70.1051 44.1606 70.25 44.5103 70.25 44.875C70.25 45.2397 70.1051 45.5894 69.8473 45.8473C69.5894 46.1051 69.2397 46.25 68.875 46.25Z" fill="#2689EC"/>
<path d="M60.625 46.25H49.625C49.2603 46.25 48.9106 46.1051 48.6527 45.8473C48.3949 45.5894 48.25 45.2397 48.25 44.875V42.125C48.25 41.031 48.6846 39.9818 49.4582 39.2082C50.2318 38.4346 51.281 38 52.375 38H57.875C58.969 38 60.0182 38.4346 60.7918 39.2082C61.5654 39.9818 62 41.031 62 42.125V44.875C62 45.2397 61.8551 45.5894 61.5973 45.8473C61.3394 46.1051 60.9897 46.25 60.625 46.25ZM51 43.5H59.25V42.125C59.25 41.7603 59.1051 41.4106 58.8473 41.1527C58.5894 40.8949 58.2397 40.75 57.875 40.75H52.375C52.0103 40.75 51.6606 40.8949 51.4027 41.1527C51.1449 41.4106 51 41.7603 51 42.125V43.5Z" fill="#2689EC"/>
<path d="M52.375 65.5C52.0103 65.5 51.6606 65.3551 51.4027 65.0973C51.1449 64.8394 51 64.4897 51 64.125V54.5C51 54.1353 51.1449 53.7856 51.4027 53.5277C51.6606 53.2699 52.0103 53.125 52.375 53.125C52.7397 53.125 53.0894 53.2699 53.3473 53.5277C53.6051 53.7856 53.75 54.1353 53.75 54.5V64.125C53.75 64.4897 53.6051 64.8394 53.3473 65.0973C53.0894 65.3551 52.7397 65.5 52.375 65.5Z" fill="#2689EC"/>
<path d="M57.875 65.5C57.5103 65.5 57.1606 65.3551 56.9027 65.0973C56.6449 64.8394 56.5 64.4897 56.5 64.125V54.5C56.5 54.1353 56.6449 53.7856 56.9027 53.5277C57.1606 53.2699 57.5103 53.125 57.875 53.125C58.2397 53.125 58.5894 53.2699 58.8473 53.5277C59.1051 53.7856 59.25 54.1353 59.25 54.5V64.125C59.25 64.4897 59.1051 64.8394 58.8473 65.0973C58.5894 65.3551 58.2397 65.5 57.875 65.5Z" fill="#2689EC"/>
</svg>
