<svg width="20" height="20" viewBox="0 0 20 20" fill="none" xmlns="http://www.w3.org/2000/svg">
<path d="M12.7769 18.9587C12.4269 18.9587 12.0685 18.8337 11.7935 18.5837L10.1269 17.0587C10.0602 17.0003 9.92688 17.0003 9.85188 17.0587L8.19351 18.5837C7.64352 19.092 6.78515 19.0837 6.23515 18.5837L4.56848 17.0587C4.50181 17.0003 4.36852 17.0003 4.29352 17.0587L3.46848 17.817C2.71015 18.5087 2.11016 18.4003 1.8185 18.267C1.52683 18.1337 1.03516 17.767 1.03516 16.7253V10.1503C1.03516 5.12532 5.05182 1.04199 9.99346 1.04199C14.9351 1.04199 18.9518 5.12532 18.9518 10.1503V16.7253C18.9518 17.767 18.4601 18.142 18.1685 18.267C17.8768 18.392 17.2769 18.5087 16.5185 17.817L15.6852 17.0587C15.6185 17.0003 15.4851 17.0003 15.4185 17.0587L13.7518 18.5837C13.4851 18.8337 13.1352 18.9587 12.7769 18.9587ZM10.0018 15.7587C10.3518 15.7587 10.7101 15.8837 10.9768 16.1337L12.6435 17.6587C12.7101 17.717 12.8435 17.717 12.9101 17.6587L14.5768 16.1337C15.1268 15.6337 15.9852 15.6337 16.5352 16.1337L17.3685 16.892C17.5102 17.017 17.6018 17.0753 17.6601 17.092C17.6851 17.0337 17.7101 16.917 17.7101 16.717V10.142C17.7101 5.80867 14.2518 2.28365 10.0018 2.28365C5.75183 2.28365 2.2935 5.80867 2.2935 10.142V16.717C2.2935 16.917 2.32683 17.0337 2.3435 17.092C2.40183 17.067 2.50181 17.017 2.63515 16.892L3.46848 16.1337C4.01848 15.6337 4.87684 15.6337 5.42684 16.1337L7.09351 17.6587C7.16017 17.717 7.29351 17.717 7.36018 17.6587L9.02688 16.1337C9.29355 15.8837 9.6518 15.7587 10.0018 15.7587Z" fill="black"/>
<path d="M10.0001 13.3922C8.69175 13.3922 7.38338 12.9839 6.29171 12.1672C6.01671 11.9589 5.95841 11.5672 6.16674 11.2922C6.37508 11.0172 6.76673 10.9589 7.04173 11.1672C8.78342 12.4756 11.2167 12.4756 12.9583 11.1672C13.2333 10.9589 13.625 11.0172 13.8333 11.2922C14.0417 11.5672 13.9834 11.9589 13.7084 12.1672C12.6168 12.9839 11.3084 13.3922 10.0001 13.3922Z" fill="black"/>
<path d="M10.0002 9.79134C8.7335 9.79134 7.7085 8.76634 7.7085 7.49967C7.7085 6.23301 8.7335 5.20801 10.0002 5.20801C11.2668 5.20801 12.2918 6.23301 12.2918 7.49967C12.2918 8.76634 11.2668 9.79134 10.0002 9.79134ZM10.0002 6.45801C9.42516 6.45801 8.9585 6.92467 8.9585 7.49967C8.9585 8.07467 9.42516 8.54134 10.0002 8.54134C10.5752 8.54134 11.0418 8.07467 11.0418 7.49967C11.0418 6.92467 10.5752 6.45801 10.0002 6.45801Z" fill="black"/>
</svg>
