<svg width="18" height="18" viewBox="0 0 18 18" fill="none" xmlns="http://www.w3.org/2000/svg">
<g clip-path="url(#clip0_32_2091)">
<path d="M10.3516 8.2106C10.2091 8.2106 10.0666 8.1581 9.95414 8.0456C9.73664 7.8281 9.73664 7.46813 9.95414 7.25063L16.1041 1.10063C16.3216 0.883125 16.6816 0.883125 16.8991 1.10063C17.1166 1.31813 17.1166 1.67812 16.8991 1.89562L10.7491 8.0456C10.6441 8.1506 10.5016 8.2106 10.3516 8.2106Z" fill="black"/>
<path d="M13.3725 8.81389H9.75C9.4425 8.81389 9.1875 8.55889 9.1875 8.25139V4.62891C9.1875 4.32141 9.4425 4.06641 9.75 4.06641C10.0575 4.06641 10.3125 4.32141 10.3125 4.62891V7.68889H13.3725C13.68 7.68889 13.935 7.94389 13.935 8.25139C13.935 8.55889 13.68 8.81389 13.3725 8.81389Z" fill="black"/>
<path d="M11.25 17.0625H6.75C2.6775 17.0625 0.9375 15.3225 0.9375 11.25V6.75C0.9375 2.6775 2.6775 0.9375 6.75 0.9375H8.25C8.5575 0.9375 8.8125 1.1925 8.8125 1.5C8.8125 1.8075 8.5575 2.0625 8.25 2.0625H6.75C3.2925 2.0625 2.0625 3.2925 2.0625 6.75V11.25C2.0625 14.7075 3.2925 15.9375 6.75 15.9375H11.25C14.7075 15.9375 15.9375 14.7075 15.9375 11.25V9.75C15.9375 9.4425 16.1925 9.1875 16.5 9.1875C16.8075 9.1875 17.0625 9.4425 17.0625 9.75V11.25C17.0625 15.3225 15.3225 17.0625 11.25 17.0625Z" fill="black"/>
</g>
<defs>
<clipPath id="clip0_32_2091">
<rect width="18" height="18" fill="white"/>
</clipPath>
</defs>
</svg>
