<svg width="38" height="38" viewBox="0 0 38 38" fill="none" xmlns="http://www.w3.org/2000/svg">
<rect width="38" height="38" rx="10" fill="#F5F5F5"/>
<path d="M19.0191 27.2552C16.7646 27.2552 14.5101 26.8972 12.3717 26.1812C11.5589 25.9006 10.9397 25.3297 10.6688 24.5847C10.3882 23.8396 10.4849 23.0172 10.93 22.2818L12.0427 20.4337C12.275 20.0466 12.4878 19.2726 12.4878 18.8178V16.0215C12.4878 12.422 15.4196 9.49023 19.0191 9.49023C22.6186 9.49023 25.5504 12.422 25.5504 16.0215V18.8178C25.5504 19.2629 25.7632 20.0466 25.9955 20.4434L27.0985 22.2818C27.5146 22.9785 27.592 23.8203 27.3114 24.5847C27.0308 25.3491 26.4212 25.9296 25.6568 26.1812C23.5281 26.8972 21.2736 27.2552 19.0191 27.2552ZM19.0191 10.9416C16.2227 10.9416 13.9392 13.2155 13.9392 16.0215V18.8178C13.9392 19.5241 13.6489 20.5691 13.2909 21.1787L12.1782 23.0268C11.9653 23.3848 11.9073 23.7622 12.0331 24.0815C12.1492 24.4105 12.4395 24.6621 12.8362 24.7975C16.8807 26.1522 21.1672 26.1522 25.2117 24.7975C25.56 24.6814 25.831 24.4202 25.9567 24.0718C26.0825 23.7235 26.0535 23.3461 25.86 23.0268L24.7473 21.1787C24.3796 20.5498 24.099 19.5145 24.099 18.8081V16.0215C24.099 13.2155 21.8251 10.9416 19.0191 10.9416Z" fill="#292D32"/>
<path d="M20.8153 11.2008C20.7476 11.2008 20.6798 11.1912 20.6121 11.1718C20.3315 11.0944 20.0606 11.0363 19.7993 10.9976C18.9769 10.8912 18.1835 10.9493 17.4384 11.1718C17.1675 11.2589 16.8772 11.1718 16.6934 10.9686C16.5095 10.7654 16.4515 10.4751 16.5579 10.2139C16.9546 9.19791 17.9222 8.53027 19.0253 8.53027C20.1283 8.53027 21.0959 9.18824 21.4926 10.2139C21.5894 10.4751 21.541 10.7654 21.3572 10.9686C21.212 11.1234 21.0088 11.2008 20.8153 11.2008Z" fill="#292D32"/>
<path d="M19.0152 29.4615C18.0572 29.4615 17.1284 29.0744 16.4511 28.3971C15.7738 27.7198 15.3867 26.7909 15.3867 25.833H16.8381C16.8381 26.4039 17.0703 26.9651 17.4767 27.3715C17.8831 27.7779 18.4443 28.0101 19.0152 28.0101C20.215 28.0101 21.1922 27.0328 21.1922 25.833H22.6436C22.6436 27.8359 21.0181 29.4615 19.0152 29.4615Z" fill="#292D32"/>
</svg>
