<svg width="20" height="20" viewBox="0 0 20 20" fill="none" xmlns="http://www.w3.org/2000/svg">
<path d="M9.58366 18.1253C4.87533 18.1253 1.04199 14.292 1.04199 9.58366C1.04199 4.87533 4.87533 1.04199 9.58366 1.04199C14.292 1.04199 18.1253 4.87533 18.1253 9.58366C18.1253 14.292 14.292 18.1253 9.58366 18.1253ZM9.58366 2.29199C5.55866 2.29199 2.29199 5.56699 2.29199 9.58366C2.29199 13.6003 5.55866 16.8753 9.58366 16.8753C13.6087 16.8753 16.8753 13.6003 16.8753 9.58366C16.8753 5.56699 13.6087 2.29199 9.58366 2.29199Z" fill="black"/>
<path d="M18.3316 18.9566C18.1732 18.9566 18.0149 18.8982 17.8899 18.7732L16.2232 17.1066C15.9816 16.8649 15.9816 16.4649 16.2232 16.2232C16.4649 15.9816 16.8649 15.9816 17.1066 16.2232L18.7732 17.8899C19.0149 18.1316 19.0149 18.5316 18.7732 18.7732C18.6482 18.8982 18.4899 18.9566 18.3316 18.9566Z" fill="black"/>
</svg>
