<svg width="20" height="20" viewBox="0 0 20 20" fill="none" xmlns="http://www.w3.org/2000/svg">
<path d="M9.99871 18.9693C9.09037 18.9693 8.19038 18.7026 7.48205 18.1776L3.8987 15.5026C2.9487 14.7942 2.20703 13.3192 2.20703 12.1359V5.94427C2.20703 4.66094 3.14871 3.29427 4.35705 2.84427L8.51537 1.28594C9.34037 0.977604 10.6404 0.977604 11.4654 1.28594L15.632 2.84427C16.8404 3.29427 17.782 4.66094 17.782 5.94427V12.1359C17.782 13.3192 17.0404 14.7942 16.0904 15.5026L12.507 18.1776C11.807 18.7026 10.907 18.9693 9.99871 18.9693ZM8.95704 2.4526L4.79871 4.01093C4.08205 4.2776 3.45703 5.1776 3.45703 5.94427V12.1359C3.45703 12.9276 4.01537 14.0359 4.64037 14.5026L8.2237 17.1776C9.18204 17.8942 10.807 17.8942 11.7654 17.1776L15.3487 14.5026C15.982 14.0276 16.532 12.9192 16.532 12.1359V5.94427C16.532 5.18594 15.907 4.28593 15.1904 4.01093L11.032 2.4526C10.482 2.24427 9.51537 2.24427 8.95704 2.4526Z" fill="black"/>
<path d="M10.0015 9.72874C9.98488 9.72874 9.96821 9.72874 9.94321 9.72874C8.73488 9.69541 7.85156 8.77041 7.85156 7.64539C7.85156 6.49539 8.79321 5.55371 9.94321 5.55371C11.0932 5.55371 12.0349 6.49539 12.0349 7.64539C12.0265 8.77874 11.1432 9.69533 10.0182 9.73699C10.0099 9.72866 10.0099 9.72874 10.0015 9.72874ZM9.94321 6.80371C9.47655 6.80371 9.10155 7.17872 9.10155 7.64539C9.10155 8.10372 9.45988 8.47033 9.90988 8.48699C9.90988 8.48699 9.95155 8.48699 10.0015 8.48699C10.4432 8.46199 10.7849 8.09539 10.7849 7.64539C10.7932 7.17872 10.4099 6.80371 9.94321 6.80371Z" fill="black"/>
<path d="M9.99758 14.4594C9.28091 14.4594 8.55591 14.2678 7.99757 13.8928C7.43924 13.5261 7.12256 12.9844 7.12256 12.4094C7.12256 11.8344 7.43924 11.2928 7.99757 10.9178C9.12257 10.1678 10.8809 10.1761 11.9976 10.9178C12.5559 11.2844 12.8726 11.8261 12.8726 12.4011C12.8726 12.9761 12.5559 13.5178 11.9976 13.8928C11.4392 14.2678 10.7142 14.4594 9.99758 14.4594ZM8.68924 11.9511C8.48091 12.0844 8.36424 12.2511 8.37258 12.4011C8.37258 12.5511 8.48924 12.7178 8.68924 12.8511C9.38924 13.3178 10.6059 13.3178 11.3059 12.8511C11.5142 12.7178 11.6309 12.5511 11.6309 12.4011C11.6309 12.2511 11.5142 12.0844 11.3142 11.9511C10.6142 11.4928 9.38924 11.4928 8.68924 11.9511Z" fill="black"/>
</svg>
