<svg width="24" height="24" viewBox="0 0 24 24" fill="none" xmlns="http://www.w3.org/2000/svg">
<path d="M5.00245 18.2475C5.19245 18.2475 5.38245 18.1775 5.53245 18.0275L19.5325 4.0275C19.8225 3.7375 19.8225 3.2575 19.5325 2.9675C19.2425 2.6775 18.7625 2.6775 18.4725 2.9675L4.47245 16.9675C4.18245 17.2575 4.18245 17.7375 4.47245 18.0275C4.62245 18.1775 4.81245 18.2475 5.00245 18.2475Z" fill="#292D32"/>
<path d="M19 14.52C19.41 14.52 19.75 14.18 19.75 13.77V3.5C19.75 3.09 19.41 2.75 19 2.75H8.73C8.32 2.75 7.98 3.09 7.98 3.5C7.98 3.91 8.32 4.25 8.73 4.25H18.25V13.77C18.25 14.18 18.59 14.52 19 14.52Z" fill="#292D32"/>
</svg>
