<svg width="42" height="42" viewBox="0 0 42 42" fill="none" xmlns="http://www.w3.org/2000/svg">
<circle cx="21" cy="21" r="21" fill="white"/>
<path d="M14.0024 29.2475C14.1924 29.2475 14.3825 29.1775 14.5325 29.0275L28.5325 15.0275C28.8225 14.7375 28.8225 14.2575 28.5325 13.9675C28.2425 13.6775 27.7625 13.6775 27.4725 13.9675L13.4725 27.9675C13.1825 28.2575 13.1825 28.7375 13.4725 29.0275C13.6225 29.1775 13.8125 29.2475 14.0024 29.2475Z" fill="#292D32"/>
<path d="M28 25.52C28.41 25.52 28.75 25.18 28.75 24.77V14.5C28.75 14.09 28.41 13.75 28 13.75H17.73C17.32 13.75 16.98 14.09 16.98 14.5C16.98 14.91 17.32 15.25 17.73 15.25H27.25V24.77C27.25 25.18 27.59 25.52 28 25.52Z" fill="#292D32"/>
</svg>
