<svg width="20" height="20" viewBox="0 0 20 20" fill="none" xmlns="http://www.w3.org/2000/svg">
<rect width="20" height="20" fill="white"/>
<path d="M5.73584 15.7484C5.39417 15.7484 5.11084 15.4651 5.11084 15.1234V13.3984C5.11084 13.0568 5.39417 12.7734 5.73584 12.7734C6.07751 12.7734 6.36084 13.0568 6.36084 13.3984V15.1234C6.36084 15.4734 6.07751 15.7484 5.73584 15.7484Z" fill="black"/>
<path d="M10 15.7503C9.65833 15.7503 9.375 15.467 9.375 15.1253V11.667C9.375 11.3253 9.65833 11.042 10 11.042C10.3417 11.042 10.625 11.3253 10.625 11.667V15.1253C10.625 15.4753 10.3417 15.7503 10 15.7503Z" fill="black"/>
<path d="M14.2642 15.7497C13.9225 15.7497 13.6392 15.4664 13.6392 15.1247V9.94141C13.6392 9.59974 13.9225 9.31641 14.2642 9.31641C14.6058 9.31641 14.8892 9.59974 14.8892 9.94141V15.1247C14.8892 15.4747 14.6142 15.7497 14.2642 15.7497Z" fill="black"/>
<path d="M5.7312 10.9841C5.44786 10.9841 5.19786 10.7925 5.12286 10.5091C5.03953 10.1758 5.23953 9.83414 5.5812 9.75081C8.64788 8.98414 11.3479 7.30916 13.4062 4.91749L13.7895 4.46749C14.0145 4.20916 14.4062 4.17583 14.6729 4.40083C14.9312 4.62583 14.9645 5.01749 14.7395 5.28416L14.3562 5.73416C12.1312 8.33416 9.19788 10.1425 5.8812 10.9675C5.8312 10.9841 5.7812 10.9841 5.7312 10.9841Z" fill="black"/>
<path d="M14.2644 7.93431C13.9228 7.93431 13.6394 7.65098 13.6394 7.30931V5.50098H11.8228C11.4811 5.50098 11.1978 5.21764 11.1978 4.87598C11.1978 4.53431 11.4811 4.25098 11.8228 4.25098H14.2644C14.6061 4.25098 14.8894 4.53431 14.8894 4.87598V7.31764C14.8894 7.65931 14.6144 7.93431 14.2644 7.93431Z" fill="black"/>
<path d="M12.4998 18.9587H7.49984C2.97484 18.9587 1.0415 17.0253 1.0415 12.5003V7.50032C1.0415 2.97533 2.97484 1.04199 7.49984 1.04199H12.4998C17.0248 1.04199 18.9582 2.97533 18.9582 7.50032V12.5003C18.9582 17.0253 17.0248 18.9587 12.4998 18.9587ZM7.49984 2.29199C3.65817 2.29199 2.2915 3.65866 2.2915 7.50032V12.5003C2.2915 16.342 3.65817 17.7087 7.49984 17.7087H12.4998C16.3415 17.7087 17.7082 16.342 17.7082 12.5003V7.50032C17.7082 3.65866 16.3415 2.29199 12.4998 2.29199H7.49984Z" fill="black"/>
</svg>
