<svg width="18" height="18" viewBox="0 0 18 18" fill="none" xmlns="http://www.w3.org/2000/svg">
<path d="M9 9.5625C6.6225 9.5625 4.6875 7.6275 4.6875 5.25C4.6875 2.8725 6.6225 0.9375 9 0.9375C11.3775 0.9375 13.3125 2.8725 13.3125 5.25C13.3125 7.6275 11.3775 9.5625 9 9.5625ZM9 2.0625C7.245 2.0625 5.8125 3.495 5.8125 5.25C5.8125 7.005 7.245 8.4375 9 8.4375C10.755 8.4375 12.1875 7.005 12.1875 5.25C12.1875 3.495 10.755 2.0625 9 2.0625Z" fill="black"/>
<path d="M15.4455 17.0625C15.138 17.0625 14.883 16.8075 14.883 16.5C14.883 13.9125 12.2431 11.8125 9.00308 11.8125C5.76304 11.8125 3.12305 13.9125 3.12305 16.5C3.12305 16.8075 2.86805 17.0625 2.56055 17.0625C2.25305 17.0625 1.99805 16.8075 1.99805 16.5C1.99805 13.2975 5.14054 10.6875 9.00308 10.6875C12.8656 10.6875 16.008 13.2975 16.008 16.5C16.008 16.8075 15.753 17.0625 15.4455 17.0625Z" fill="black"/>
</svg>
